#N canvas -8 -8 1904 986 10;
#X obj 1119 484 osc~ 100;
#X obj 1097 632 dac~;
#X obj 1116 563 *~ 0.1;
#X obj 1275 330 vsl 15 128 1 50 1 0 empty empty empty 0 -9 0 10 -262144
-1 -1 7800 1;
#X floatatom 1275 471 5 0 0 0 - - -, f 5;
#X obj 1426 490 vsl 15 128 0.001 1 1 0 empty empty empty 0 -9 0 10
-262144 -1 -1 12700 1;
#X floatatom 1426 631 5 0 0 0 - - -, f 5;
#X obj 1069 87 hradio 15 0 0 5 empty empty empty 0 -8 0 10 -262144
-1 -1 4;
#X obj 1051 167 route 1 2 3 4 5;
#X msg 1036 202 40;
#X msg 1084 202 20;
#X msg 1126 202 10;
#X msg 1197 202 5;
#X msg 1244 202 2;
#X floatatom 1130 262 5 0 0 0 - - -, f 5;
#X obj 1069 110 + 1;
#X floatatom 1069 135 5 0 0 0 - - -, f 5;
#X connect 0 0 2 0;
#X connect 2 0 1 0;
#X connect 2 0 1 1;
#X connect 3 0 4 0;
#X connect 4 0 0 0;
#X connect 5 0 6 0;
#X connect 6 0 2 1;
#X connect 7 0 15 0;
#X connect 8 0 9 0;
#X connect 8 1 10 0;
#X connect 8 2 11 0;
#X connect 8 3 12 0;
#X connect 8 4 13 0;
#X connect 9 0 14 0;
#X connect 10 0 14 0;
#X connect 11 0 14 0;
#X connect 12 0 14 0;
#X connect 13 0 14 0;
#X connect 14 0 4 0;
#X connect 15 0 16 0;
#X connect 16 0 8 0;
